<svg width="50" height="49" viewBox="0 0 50 49" fill="none" xmlns="http://www.w3.org/2000/svg">
<path d="M25.1416 0.335938C11.7046 0.335938 0.812012 11.2285 0.812012 24.6655C0.812012 38.1024 11.7046 48.995 25.1416 48.995C38.5785 48.995 49.4711 38.1024 49.4711 24.6655C49.4711 11.2285 38.5785 0.335938 25.1416 0.335938ZM25.1416 12.2342C29.9529 12.2342 33.8678 16.1491 33.8678 20.9604C33.8678 25.7722 29.9529 29.6866 25.1416 29.6866C20.3297 29.6866 16.4154 25.7722 16.4154 20.9604C16.4154 16.1491 20.3297 12.2342 25.1416 12.2342ZM25.1416 45.6662C19.1214 45.6662 13.7213 43.0251 10.0264 38.8415C11.7441 35.7327 14.4295 33.1776 17.6227 31.6286C18.7088 31.102 19.9767 31.1107 21.1018 31.6508C22.3685 32.2596 23.7278 32.5677 25.1421 32.5677C26.5559 32.5677 27.9157 32.259 29.1824 31.6508C30.3086 31.1101 31.5765 31.102 32.6616 31.6286C35.8547 33.1771 38.5396 35.7327 40.2573 38.8415C36.5619 43.0246 31.1618 45.6662 25.1416 45.6662Z" fill="#201713"/>
</svg>
