<svg width="252" height="317" viewBox="0 0 252 317" fill="none" xmlns="http://www.w3.org/2000/svg">
<path d="M161.058 50.241C165.928 50.241 169.877 46.5606 169.877 41.6893C169.877 36.8181 165.928 33.1377 161.058 33.1377H116.207V17.1033H161.058C165.928 17.1033 169.877 13.4229 169.877 8.55166C169.877 3.68042 165.928 0 161.058 0H98.3903C89.5351 0 82 7.17912 82 16.0344V300.377C82 309.232 89.5351 316.411 98.3903 316.411H161.058C165.928 316.411 169.877 312.731 169.877 307.86C169.877 302.989 165.928 299.308 161.058 299.308H116.207V283.274H161.058C165.928 283.274 169.877 279.593 169.877 274.722C169.877 269.851 165.928 266.17 161.058 266.17H116.207V250.136H161.058C165.928 250.136 169.877 246.456 169.877 241.584C169.877 236.713 165.928 233.033 161.058 233.033H116.207V216.998H161.058C165.928 216.998 169.877 213.318 169.877 208.447C169.877 203.575 165.928 199.895 161.058 199.895H116.207V183.861H161.058C165.928 183.861 169.877 180.18 169.877 175.309C169.877 170.438 165.928 166.757 161.058 166.757H116.207V149.654H161.058C165.928 149.654 169.877 145.974 169.877 141.102C169.877 136.231 165.928 132.551 161.058 132.551H116.207V116.516H161.058C165.928 116.516 169.877 112.836 169.877 107.965C169.877 103.093 165.928 99.4131 161.058 99.4131H116.207V83.3787H161.058C165.928 83.3787 169.877 79.6983 169.877 74.827C169.877 69.9558 165.928 66.2754 161.058 66.2754H116.207V50.241H161.058Z" fill="#443028"/>
</svg>
