<svg width="135" height="42" viewBox="0 0 135 42" fill="none" xmlns="http://www.w3.org/2000/svg">
<path fill-rule="evenodd" clip-rule="evenodd" d="M21.141 41.5898C27.1975 41.5898 33.4197 39.0708 37.2284 34.5312L31.2432 28.5176C29.3741 30.5382 25.8253 33.0572 21.3776 33.0572C15.818 33.0572 11.3702 29.2308 10.8024 23.7162H37.962C38.1277 22.8371 38.1988 21.7676 38.1988 20.7219C38.1988 9.76486 30.5333 0.589844 19.6979 0.589844C8.05808 0.589844 0.629395 10.1687 0.629395 21.1258C0.629395 33.4611 9.43024 41.5898 21.141 41.5898ZM19.6979 9.12305C23.98 9.12305 27.1266 12.5218 27.4578 16.0158H11.2992C11.7724 12.4504 15.3448 9.12305 19.6979 9.12305ZM70.6107 1.39819L59.8695 25.4275L49.1052 1.39819H38.1988L56.2265 40.7821H63.4894L81.5171 1.39819H70.6107ZM101.958 0.589844C113.834 0.589844 122.8 9.76486 122.8 21.1258C122.8 32.4868 113.834 41.5898 101.958 41.5898C90.0808 41.5898 81.1145 32.4868 81.1145 21.1258C81.1145 9.76486 90.0808 0.589844 101.958 0.589844ZM101.958 31.845C108.109 31.845 112.296 27.0442 112.296 21.1258C112.296 15.2074 108.085 10.3353 101.958 10.3353C95.8297 10.3353 91.6189 15.2074 91.6189 21.1258C91.6189 27.068 95.8297 31.845 101.958 31.845ZM127.106 2.72939V1.39819H122.351V2.72939H124.007V7.76806H125.45V2.72939H127.106ZM133.754 1.39819L131.294 5.0111L128.833 1.39819H127.934V7.76806H129.401V4.72559L130.915 6.91213H131.648L133.163 4.72559V7.76806H134.629V1.39819H133.754Z" fill="#201713"/>
</svg>
