<svg width="126" height="23" viewBox="0 0 126 23" fill="none" xmlns="http://www.w3.org/2000/svg">
<path d="M11.6224 0.00390625L14.1052 7.64541L22.14 7.64541L15.6397 12.3681L18.1226 20.0096L11.6224 15.2869L5.12211 20.0096L7.60499 12.3681L1.10474 7.64541L9.13949 7.64541L11.6224 0.00390625Z" fill="#EAB720"/>
<path d="M37.4261 0.00390625L39.909 7.64541L47.9437 7.64541L41.4435 12.3681L43.9263 20.0096L37.4261 15.2869L30.9258 20.0096L33.4087 12.3681L26.9084 7.64541L34.9432 7.64541L37.4261 0.00390625Z" fill="#EAB720"/>
<path d="M63.2308 0.00390625L65.7136 7.64541L73.7484 7.64541L67.2481 12.3681L69.731 20.0096L63.2308 15.2869L56.7305 20.0096L59.2134 12.3681L52.7131 7.64541L60.7479 7.64541L63.2308 0.00390625Z" fill="#EAB720"/>
<path d="M89.0345 0.00390625L91.5173 7.64541L99.5521 7.64541L93.0519 12.3681L95.5347 20.0096L89.0345 15.2869L82.5342 20.0096L85.0171 12.3681L78.5168 7.64541L86.5516 7.64541L89.0345 0.00390625Z" fill="#EAB720"/>
<path d="M114.839 0.00390625L117.322 7.64541L125.356 7.64541L118.856 12.3681L121.339 20.0096L114.839 15.2869L108.338 20.0096L110.821 12.3681L104.321 7.64541L112.356 7.64541L114.839 0.00390625Z" fill="#EAB720"/>
</svg>
