<svg width="94" height="101" viewBox="0 0 94 101" fill="none" xmlns="http://www.w3.org/2000/svg">
<path d="M92.3936 5.16746C91.6784 4.72529 90.7856 4.68522 90.0337 5.06116L81.3574 9.39896C79.7144 10.2198 77.8208 10.466 76.0538 10.0975L30.7217 0C41.1218 3.66028 48.5996 13.5775 48.5996 25.2138C48.5996 35.1327 43.1639 43.8005 35.1189 48.4117L75.8045 34.7666C77.8279 34.1431 79.9837 34.3207 81.878 35.2679L90.0337 39.3459C90.7856 39.7218 91.6784 39.6821 92.3936 39.2396C93.1088 38.7977 93.5442 38.017 93.5442 37.1764V7.23091C93.5442 6.39039 93.1092 5.60963 92.3936 5.16746Z" fill="#443028"/>
<path d="M12.4561 27.6392C13.5363 31.8313 17.3495 34.9377 21.874 34.9377C26.3986 34.9377 30.2117 31.8313 31.292 27.6392H12.4561Z" fill="#443028"/>
<path d="M43.7482 25.2137C43.7482 13.1522 33.9356 3.3396 21.8741 3.3396C9.8126 3.3396 0 13.1522 0 25.2137C0 37.2752 9.8126 47.0878 21.8741 47.0878C33.9356 47.0878 43.7482 37.2752 43.7482 25.2137ZM21.8741 39.7889C13.8373 39.7889 7.29849 33.2505 7.29849 25.2133C7.29849 17.1762 13.8369 10.6381 21.8741 10.6381C29.9112 10.6381 36.4497 17.1765 36.4497 25.2137C36.4497 33.2508 29.9109 39.7889 21.8741 39.7889Z" fill="#443028"/>
<path d="M31.292 22.788C30.2117 18.5959 26.3986 15.4895 21.874 15.4895C17.3495 15.4895 13.5363 18.5959 12.4561 22.788H31.292Z" fill="#443028"/>
<path d="M21.8736 72.9252C20.5338 72.9252 19.4481 71.8391 19.4481 70.4993C19.4481 69.1596 20.5342 68.0739 21.8736 68.0739H31.4138V64.0889H21.8736C20.5338 64.0889 19.4481 63.0029 19.4481 61.6634C19.4481 60.324 20.5342 59.238 21.8736 59.238H31.4138V50.1728C28.4487 51.3102 25.234 51.9395 21.8736 51.9395C16.0483 51.9395 10.6567 50.0608 6.26117 46.8848C6.26083 46.9021 6.25879 46.9191 6.25879 46.9364V76.8507C6.25879 82.5843 10.1164 87.4301 15.3711 88.939V97.3983C15.3711 99.3119 16.9228 100.864 18.8365 100.864C20.7502 100.864 22.3018 99.3119 22.3018 97.3983V88.939C27.5566 87.4301 31.4142 82.5843 31.4142 76.8507V72.9252H21.8736Z" fill="#443028"/>
</svg>
