<svg width="190" height="67" viewBox="0 0 190 67" fill="none" xmlns="http://www.w3.org/2000/svg">
<path d="M7.09194 7.03189V14.0628H3.75447H0.416992V15.3533V16.6438L3.73667 16.6616L7.04744 16.6883V26.9232C7.04744 34.8264 7.02074 37.3717 6.93174 38.0926C6.48675 41.6704 5.36535 44.5451 3.74557 46.2539L3.27387 46.7612L3.82567 47.4287C5.09836 48.9862 5.44545 49.3955 5.48995 49.3955C5.51665 49.3955 5.97945 49.0485 6.51345 48.6213C7.68824 47.6868 9.94882 45.4529 10.7765 44.4116C12.4141 42.3379 13.6156 40.0951 14.1763 38.0303C14.648 36.3038 14.6569 36.108 14.6569 29.5665C14.6569 25.4191 14.6836 23.5057 14.7459 23.5413C14.7993 23.5769 15.0485 24.0041 15.2977 24.5024C17.7541 29.4152 22.7825 38.5554 25.6572 43.3436C29.9025 50.419 32.7682 54.3617 36.0523 57.628C37.8946 59.4614 39.995 61.0723 42.3802 62.4784C43.4927 63.1281 46.0024 64.3474 47.2395 64.828C49.0284 65.5222 51.7696 66.2876 52.1167 66.1719C52.1968 66.1452 52.3748 65.9583 52.5083 65.7536C52.7931 65.3086 52.8287 64.7835 52.5884 64.5432C52.4994 64.4542 51.8675 64.1872 51.1822 63.9469C46.928 62.4695 44.5785 61.2681 42.0509 59.2567C40.8761 58.3222 40.0395 57.5212 38.9181 56.2485C34.5037 51.2378 28.2916 41.5547 20.78 27.9912C18.475 23.8439 14.7459 16.8574 14.7459 16.6972C14.7459 16.6705 19.8722 16.6438 26.1378 16.6438C36.1947 16.6438 37.5742 16.626 37.859 16.5103C38.2862 16.3323 38.4909 16.1454 38.7045 15.7271C38.8647 15.4067 38.8736 15.2198 38.8469 12.6032L38.8202 9.82647L38.5532 9.30137C38.3485 8.90088 38.1794 8.71398 37.8501 8.50038L37.414 8.23338L33.8184 8.20668L30.2318 8.17998V9.61287V11.0369H30.748C31.5045 11.0369 31.5223 11.0636 31.5223 12.087C31.5223 12.888 31.5045 12.9948 31.282 13.3241C31.1396 13.5377 30.8904 13.7602 30.659 13.8759C30.2674 14.0628 30.2318 14.0628 22.4621 14.0628H14.6569V7.03189V0.000947389H10.8744H7.09194V7.03189Z" fill="#201713"/>
<path d="M92.4867 8.33093C89.5497 8.82042 86.6127 10.5203 84.7704 12.7898C82.7591 15.264 81.6466 18.1119 81.4063 21.4138C81.2995 22.9268 81.2995 34.3098 81.4063 35.9296C81.5665 38.2169 82.0026 39.8634 83.0083 41.8748C84.9306 45.7551 88.277 48.3272 92.3977 49.0926C93.5369 49.3062 97.1058 49.3329 98.0936 49.1371C100.523 48.6565 102.811 47.1969 105.276 44.5803C105.828 43.9929 106.29 43.4856 106.308 43.4411C106.317 43.4055 105.071 42.2664 103.523 40.9047L100.71 38.4394L100.247 38.9467C99.5087 39.7655 98.3784 40.8424 97.9156 41.1628C97.1414 41.7146 96.8388 41.7858 95.2457 41.7769C93.9374 41.768 93.7594 41.7502 93.1097 41.5277C90.7601 40.7267 89.2204 38.6708 88.8822 35.8673C88.7576 34.8349 88.7665 22.5441 88.8911 21.4939C89.0691 19.972 89.7188 18.4679 90.6177 17.4623C91.2051 16.8037 92.2197 16.1629 93.0919 15.887C93.6615 15.7001 94.0709 15.6378 94.9787 15.6022C97.0435 15.5132 97.5418 15.7446 99.4998 17.7292C100.603 18.8417 100.746 18.9574 100.879 18.8417C101.04 18.7082 106.139 14.2583 106.273 14.1426C106.433 14.0002 104.306 11.7663 102.989 10.7072C101.529 9.53242 99.8113 8.67802 98.2805 8.35763C97.613 8.22413 97.1058 8.18853 95.3347 8.19743C93.9908 8.20633 92.9317 8.25083 92.4867 8.33093Z" fill="#201713"/>
<path d="M127.953 8.24417C126.102 8.59127 125.114 8.89387 123.903 9.49906C119.72 11.5994 116.926 15.8091 116.383 20.802C116.312 21.4873 116.294 23.9615 116.312 29.3726L116.347 36.982L116.587 38.0589C117.255 41.0938 118.492 43.4167 120.512 45.4459C122.515 47.4484 124.606 48.5609 127.374 49.1038C128.513 49.3263 131.584 49.3263 132.714 49.0949C135.304 48.5787 137.636 47.3505 139.443 45.5438C141.712 43.2832 143.083 40.4975 143.572 37.1422C143.697 36.3146 143.706 35.1131 143.688 28.3046C143.661 20.4816 143.661 20.4193 143.456 19.4581C143.02 17.3844 142.299 15.6578 141.223 14.0469C140.11 12.4004 139.069 11.3502 137.476 10.2823C136.203 9.42787 135.046 8.92947 133.337 8.48447C132.527 8.27977 132.26 8.25307 130.311 8.23527C129.136 8.21747 128.077 8.22637 127.953 8.24417ZM131.735 15.8091C133.124 16.1651 134.681 17.4378 135.375 18.755C136.301 20.5528 136.319 20.7486 136.319 28.6161C136.319 36.4748 136.292 36.7418 135.464 38.4416C135.117 39.1447 134.912 39.4206 134.281 40.0525C133.435 40.898 132.696 41.343 131.691 41.6189C130.907 41.8325 129.19 41.8325 128.416 41.6278C125.941 40.9692 124.215 38.7798 123.859 35.8696C123.734 34.8372 123.743 22.5553 123.868 21.4962C123.974 20.5439 124.428 19.1644 124.847 18.4702C125.754 16.975 127.339 15.8981 128.994 15.6756C129.75 15.5688 131.032 15.6311 131.735 15.8091Z" fill="#201713"/>
<path d="M60.3135 28.7075V49.1328H64.0514H67.7894V28.7075V8.28214H64.0514H60.3135V28.7075Z" fill="#201713"/>
<path d="M155.677 8.38809C155.65 8.45039 155.641 17.6173 155.65 28.7511L155.677 48.9985H159.414H163.152L163.197 37.4019C163.241 26.357 163.25 25.8231 163.393 26.099C163.535 26.3659 164.443 28.137 167.335 33.7796C167.887 34.8565 168.866 36.7789 169.516 38.0516C170.166 39.3242 170.869 40.6859 171.073 41.0775C171.278 41.4691 172.284 43.4182 173.298 45.4207L175.15 49.043H178.656H182.154V28.6621V8.28129L178.443 8.29909L174.722 8.32579L174.696 19.9402L174.678 31.5546L174.473 31.1986C174.357 31.0028 173.69 29.7212 172.987 28.3506C172.293 26.98 171.109 24.675 170.361 23.2332C169.614 21.7914 168.439 19.5041 167.754 18.1602C167.06 16.8163 165.636 14.0484 164.594 12.0193L162.69 8.32579L159.201 8.29909C156.46 8.28129 155.703 8.29909 155.677 8.38809Z" fill="#201713"/>
<path d="M70.9043 47.1303V49.1328H72.9068H74.9093V47.1303V45.1278H72.9068H70.9043V47.1303Z" fill="#201713"/>
<path d="M108.106 47.1303V49.1328H110.108H112.111V47.1303V45.1278H110.108H108.106V47.1303Z" fill="#201713"/>
<path d="M143.724 47.1036L143.751 49.0883L145.735 49.115L147.711 49.1328V47.1303V45.1278H145.709H143.706L143.724 47.1036Z" fill="#201713"/>
<path d="M185.625 47.1303V49.1328H187.627H189.629V47.1303V45.1278H187.627H185.625V47.1303Z" fill="#201713"/>
<path d="M50.4793 58.4915C49.7228 58.7585 49.2778 59.4259 49.2778 60.307C49.2778 60.9656 49.527 61.4284 50.061 61.8111C50.3992 62.0425 50.5238 62.0781 51.0578 62.0781C51.5918 62.0781 51.7164 62.0425 52.0546 61.8111C53.3273 60.9122 53.0692 58.972 51.6007 58.4826C51.2358 58.3669 50.8442 58.3669 50.4793 58.4915ZM51.6185 58.8653C52.2771 59.1322 52.6865 59.9688 52.4907 60.6274C52.1436 61.7844 50.8798 62.1315 50.0254 61.3038C48.8773 60.2002 50.1589 58.2512 51.6185 58.8653Z" fill="#201713"/>
<path d="M50.5057 60.2554C50.5324 61.0386 50.5591 61.2344 50.6659 61.2344C50.7549 61.2344 50.7905 61.1276 50.7905 60.8784C50.7905 60.6203 50.8261 60.5224 50.924 60.5224C50.9952 60.5224 51.1376 60.6826 51.2355 60.8784C51.3601 61.1187 51.4758 61.2344 51.5915 61.2344C51.7695 61.2344 51.7695 61.2344 51.5915 60.8784L51.4046 60.5135L51.5915 60.2821C51.814 59.9884 51.814 59.8015 51.5826 59.5078C51.4313 59.312 51.3334 59.2764 50.9418 59.2764H50.479L50.5057 60.2554ZM51.3601 59.7392C51.4936 59.9617 51.3334 60.202 51.0219 60.2376C50.8083 60.2643 50.7905 60.2465 50.7905 59.8994C50.7905 59.5523 50.8083 59.5345 51.0219 59.5612C51.1554 59.579 51.3067 59.6591 51.3601 59.7392Z" fill="#201713"/>
</svg>
