<svg width="49" height="49" viewBox="0 0 49 49" fill="none" xmlns="http://www.w3.org/2000/svg">
<path d="M32.1562 24.5C32.1562 26.5306 31.3496 28.478 29.9138 29.9138C28.478 31.3496 26.5306 32.1562 24.5 32.1562C22.4694 32.1562 20.522 31.3496 19.0862 29.9138C17.6504 28.478 16.8437 26.5306 16.8437 24.5C16.8455 24.0627 16.8871 23.6374 16.9688 23.224H14.2917V33.4246C14.2917 34.1341 14.8659 34.7083 15.5754 34.7083H33.4272C33.7672 34.7077 34.0931 34.5721 34.3332 34.3314C34.5734 34.0908 34.7083 33.7647 34.7083 33.4246V23.224H32.0312C32.1129 23.6374 32.1545 24.0627 32.1562 24.5ZM24.5 29.6042C25.1705 29.604 25.8343 29.4718 26.4537 29.215C27.073 28.9583 27.6358 28.5821 28.1097 28.1079C28.5837 27.6337 28.9596 27.0708 29.216 26.4513C29.4724 25.8318 29.6043 25.1679 29.6042 24.4974C29.604 23.827 29.4718 23.1631 29.215 22.5438C28.9583 21.9244 28.5821 21.3617 28.1079 20.8877C27.6337 20.4138 27.0708 20.0378 26.4513 19.7814C25.8318 19.525 25.1679 19.3931 24.4974 19.3933C23.1434 19.3936 21.8449 19.9318 20.8877 20.8895C19.9305 21.8472 19.3929 23.146 19.3933 24.5C19.3936 25.854 19.9318 27.1525 20.8895 28.1097C21.8472 29.0669 23.146 29.6045 24.5 29.6042ZM30.625 19.1406H33.6849C33.7857 19.141 33.8855 19.1214 33.9787 19.0831C34.0719 19.0448 34.1566 18.9884 34.228 18.9173C34.2993 18.8462 34.356 18.7616 34.3946 18.6686C34.4332 18.5755 34.4531 18.4758 34.4531 18.375V15.3151C34.4535 15.2141 34.4338 15.114 34.3953 15.0207C34.3569 14.9273 34.3003 14.8425 34.2289 14.7711C34.1575 14.6997 34.0727 14.6431 33.9793 14.6047C33.886 14.5662 33.7859 14.5465 33.6849 14.5469H30.625C30.524 14.5465 30.424 14.5662 30.3306 14.6047C30.2373 14.6431 30.1525 14.6997 30.0811 14.7711C30.0097 14.8425 29.9531 14.9273 29.9146 15.0207C29.8761 15.114 29.8565 15.2141 29.8568 15.3151V18.375C29.8594 18.7961 30.2039 19.1406 30.625 19.1406ZM24.5 0C18.0022 0 11.7705 2.58124 7.17588 7.17588C2.58124 11.7705 0 18.0022 0 24.5C0 30.9978 2.58124 37.2295 7.17588 41.8241C11.7705 46.4188 18.0022 49 24.5 49C27.7174 49 30.9033 48.3663 33.8757 47.135C36.8482 45.9038 39.5491 44.0992 41.8241 41.8241C44.0992 39.5491 45.9038 36.8482 47.135 33.8757C48.3663 30.9033 49 27.7174 49 24.5C49 21.2826 48.3663 18.0967 47.135 15.1243C45.9038 12.1518 44.0992 9.45092 41.8241 7.17588C39.5491 4.90085 36.8482 3.09619 33.8757 1.86495C30.9033 0.633711 27.7174 0 24.5 0ZM37.2604 34.4251C37.2604 35.9844 35.9844 37.2604 34.4251 37.2604H14.5749C13.0156 37.2604 11.7396 35.9844 11.7396 34.4251V14.5749C11.7396 13.0156 13.0156 11.7396 14.5749 11.7396H34.4251C35.9844 11.7396 37.2604 13.0156 37.2604 14.5749V34.4251Z" fill="#A57865"/>
</svg>
