<svg width="144" height="73" viewBox="0 0 144 73" fill="none" xmlns="http://www.w3.org/2000/svg">
<path d="M58.8393 0.634895C53.4992 1.64683 46.5253 6.20663 38.9053 13.6803C33.9919 18.5083 29.8832 23.3851 25.2015 29.9688L24.0188 31.6269L23.08 31.822C20.8611 32.2975 17.4961 32.6388 15.1065 32.6388C11.7902 32.6388 9.02263 31.5781 7.12067 29.5787C5.4016 27.762 4.73103 25.6772 5.16995 23.4949C6.04777 19.1545 10.4125 15.5579 17.618 13.217C23.7994 11.2053 29.9198 10.5957 34.9307 11.4858C36.857 11.8271 37.9787 11.8637 38.5761 11.6199C39.4905 11.2419 39.7953 10.2056 39.1979 9.49846C38.6249 8.81571 37.2106 8.38899 34.5527 8.072C29.3224 7.4624 21.4707 8.38899 15.9599 10.2787C6.34038 13.5584 0.0127178 19.5568 0.000525766 25.409C-0.0116663 29.7493 2.951 33.3704 7.81562 34.9553C10.0955 35.699 11.3391 35.8697 14.631 35.8697C17.1547 35.8697 17.9106 35.8209 19.4834 35.5893C20.5197 35.4308 21.3732 35.3211 21.3975 35.3455C21.4097 35.3576 21.0562 36.0404 20.5929 36.8451C17.8619 41.5756 15.4356 47.2692 14.3871 51.4145C13.6312 54.4015 13.4849 55.5232 13.4727 58.3639C13.4727 61.1924 13.5703 61.9362 14.1555 63.7528C15.4966 67.8858 18.6178 70.8729 22.7387 71.958C28.1397 73.3966 34.8454 71.9336 40.7707 68.02C42.6239 66.8008 44.282 65.4231 46.0986 63.5821L47.7689 61.8996L47.8421 62.3629C48.0371 63.5699 49.2929 65.4353 50.378 66.118C51.5606 66.8739 53.2675 67.0934 55.0232 66.7154C56.157 66.4716 58.1199 65.5084 59.3757 64.5818C60.6925 63.6065 62.6676 61.607 64.0087 59.9123L65.045 58.5956L65.2035 59.3636C65.7278 61.9849 67.8248 63.4236 70.5192 62.9969C72.153 62.7408 73.9696 61.9118 75.8228 60.5828C76.8957 59.8269 79.6511 57.2422 80.3948 56.3157L80.7118 55.9011L81.4799 56.6205C84.5767 59.5221 90.3191 59.6806 95.5251 57.0106C100.438 54.4991 104.072 49.9149 105.462 44.4651C106.157 41.7462 106.242 40.6977 106.254 34.4676C106.266 31.2855 106.315 28.0181 106.364 27.2012L106.461 25.7382L108.534 23.4217C109.668 22.1537 110.814 20.8004 111.07 20.3981C112.009 19.0326 112.131 17.7646 111.424 17.0819C111.094 16.7649 110.96 16.7283 110.107 16.6917C108.375 16.6064 106.181 17.3867 104.913 18.5327C103.743 19.5812 103.133 20.9589 102.572 23.8118L102.231 25.5065L99.5485 28.0059C98.0732 29.3714 95.4885 31.8707 93.7938 33.5532C91.392 35.9307 90.6605 36.7353 90.4532 37.1986C90.1362 37.9302 90.2094 38.4422 90.7092 38.9177C91.014 39.2103 91.2091 39.2835 91.8065 39.32C92.2211 39.3566 92.6844 39.3078 92.8916 39.2225C93.0867 39.1494 95.0618 37.223 97.2929 34.9431C99.5119 32.6754 101.377 30.81 101.426 30.81C101.475 30.81 101.45 31.3953 101.365 32.1146C101.28 32.8461 101.121 34.7237 101.024 36.2964C100.719 40.8928 100.585 42.1242 100.28 43.6848C98.9998 50.049 95.2203 54.6454 90.502 55.5598C89.4169 55.7792 87.771 55.6573 86.8688 55.3159C85.869 54.9258 84.9424 53.9992 84.6864 53.1214L84.4913 52.4874L85.4789 50.8902C87.5271 47.6106 88.1002 45.989 87.5515 45.1234C86.82 43.953 85.3204 43.5628 83.5891 44.0993C80.7484 44.9771 78.8342 48.0373 79.0659 51.3291L79.139 52.402L78.3709 53.3408C77.2614 54.7063 75.0791 56.9253 73.8842 57.9006C72.6041 58.9369 71.0069 59.766 70.2754 59.766C69.6536 59.766 69.1659 59.3758 69.0562 58.7784C68.727 56.9984 71.4336 50.878 77.8223 38.9787C80.8215 33.3947 82.5893 29.9078 82.8454 29.091C82.9673 28.6886 83.0283 28.2741 82.9795 28.079C82.7966 27.3597 81.5896 27.2012 79.9924 27.7011C78.5782 28.1522 77.9442 28.6155 77.3468 29.6884L76.8469 30.5662L76.5177 30.0785C76.1154 29.4567 75.396 28.9447 74.6767 28.7374C73.9086 28.5179 72.092 28.6399 71.0191 28.9812C66.5324 30.3955 60.8997 35.187 55.901 41.8438C53.8771 44.5382 52.9993 45.9403 49.805 51.5364C46.0864 58.0591 44.9769 59.6197 42.0508 62.4482C39.2345 65.167 36.4547 66.9471 33.297 68.0443C30.1148 69.1538 27.6033 69.105 25.1161 67.9102C24.1529 67.4469 23.7994 67.1909 22.9703 66.3375C22.1291 65.4962 21.8608 65.1183 21.3488 64.0698C20.4222 62.1922 20.1052 60.8389 20.032 58.3639C19.9589 56.0109 20.1418 54.4381 20.7879 51.8046C21.6536 48.2933 22.7509 45.4038 24.9332 40.9903C26.3475 38.1374 28.4933 34.2116 28.8103 33.9068C28.8956 33.8336 30.1148 33.3947 31.5169 32.9436C37.2106 31.127 41.6119 29.091 47.7933 25.409C58.1565 19.2399 64.4964 12.8634 65.7887 7.32829C66.0326 6.2432 66.0448 4.57291 65.7887 3.73166C65.3986 2.37835 64.411 1.32983 63.0577 0.80558C62.1433 0.464211 60.1804 0.391052 58.8393 0.634895ZM61.2533 3.91454C61.9726 4.37783 61.8873 5.65799 61.0216 7.49898C58.2175 13.4243 49.0369 21.3125 39.137 26.2868C36.345 27.6889 31.6267 29.6884 31.4682 29.5299C31.334 29.3836 36.5157 22.2878 38.5152 19.9104C44.5868 12.644 51.7313 6.69431 56.9251 4.57291C59.1197 3.6707 60.5583 3.45124 61.2533 3.91454ZM72.409 32.2243C73.9086 33.285 72.6894 38.4544 69.3366 45.1356C64.533 54.7551 57.7298 63.009 54.1697 63.5577C53.7186 63.6308 53.6211 63.5943 53.3651 63.3138C51.9874 61.8386 53.1456 56.9131 56.3765 50.4513C60.4242 42.3802 66.4837 34.4798 70.0316 32.6754C71.263 32.0414 71.9579 31.9073 72.409 32.2243Z" fill="#FAF9F8"/>
<path d="M141.062 13.485C139.551 13.9727 138.904 14.4604 138.295 15.5698L137.807 16.4355L137.454 15.8502C136.783 14.7773 135.296 14.2531 133.516 14.4725C129.224 15.0212 122.957 19.837 117.605 26.7011C113.204 32.3582 109.924 38.6492 108.936 43.3066C108.668 44.538 108.571 46.8788 108.729 47.7566C109.144 49.9634 110.448 51.6703 112.289 52.414C113.265 52.8041 115.276 52.8041 116.556 52.4018C119.47 51.4874 122.579 48.9636 125.457 45.1476C125.737 44.7696 126.005 44.4892 126.042 44.5258C126.078 44.5502 126.152 44.855 126.2 45.1963C126.42 46.6106 127.346 47.9029 128.566 48.4882C129.456 48.9149 131.163 48.9758 132.455 48.6223C136.125 47.6103 141.331 43.1237 143.379 39.1979C143.989 38.0518 144.098 37.3691 143.769 36.7961C143.525 36.3571 142.891 35.9304 142.452 35.9304C142.038 35.9304 141.428 36.4181 140.794 37.2715C139.27 39.2954 138.587 40.1123 137.283 41.4656C135.04 43.7821 133.162 45.1598 131.76 45.5255C130.504 45.8425 129.834 45.111 130.077 43.6845C130.565 40.9048 133.345 34.9307 139.148 24.1652C141.989 18.9104 143.83 15.1919 143.928 14.5457C144.013 14.0214 143.989 13.9361 143.672 13.6069C143.367 13.2899 143.269 13.2533 142.538 13.2655C142.099 13.2655 141.428 13.3631 141.062 13.485ZM133.503 18.1301C133.906 18.5325 134.028 18.9714 134.015 20.0199C134.003 23.6409 130.589 31.4925 125.993 38.4664C123.64 42.0386 121.884 44.2575 119.714 46.3668C118.19 47.8542 117.373 48.476 116.276 48.9758C114.837 49.6586 114.277 49.4879 113.911 48.2565C112.765 44.3185 118.873 31.4925 125.847 23.1898C127.078 21.7146 129.224 19.6663 130.272 18.9592C131.723 17.9716 133.016 17.6425 133.503 18.1301Z" fill="#FAF9F8"/>
<path d="M130.918 61.338C130.723 61.6306 130.577 61.8988 130.577 61.9476C130.577 61.9842 130.991 62.0208 131.491 62.0208H132.405V67.2633V72.5059H132.954H133.503V66.6537V60.8016H132.381H131.247L130.918 61.338Z" fill="#FAF9F8"/>
<path d="M136.55 61.3502V61.8988H139.293C141.195 61.8988 142.037 61.9354 142.037 62.0329C142.037 62.1061 140.83 64.4713 139.354 67.2755C137.879 70.0918 136.672 72.4205 136.672 72.4571C136.672 72.4936 136.953 72.5058 137.294 72.4815L137.904 72.4449L139.793 68.8482C140.842 66.8731 142.207 64.2519 142.841 63.0205L144 60.8015H140.281H136.55V61.3502Z" fill="#FAF9F8"/>
<path d="M105.096 66.7147V72.5059H105.705H106.315L106.339 68.1533L106.376 63.813L110.131 68.1289C112.204 70.5064 113.972 72.4571 114.069 72.4815C114.215 72.5181 114.24 71.6402 114.24 66.7269V60.9235H113.691H113.142V65.2516C113.142 67.6291 113.094 69.5798 113.045 69.5798C112.984 69.5798 111.253 67.6291 109.18 65.2516C107.12 62.8742 105.352 60.9235 105.266 60.9235C105.12 60.9235 105.096 61.8988 105.096 66.7147Z" fill="#FAF9F8"/>
<path d="M119.202 61.1077C117.47 61.7661 116.276 63.729 116.483 65.5456C116.654 67.0086 117.653 68.4107 118.97 69.0081C119.433 69.2154 119.775 69.2763 120.701 69.2641C121.713 69.2641 121.945 69.2276 122.554 68.935C123.432 68.5082 124.261 67.5938 124.603 66.6794C124.822 66.1064 124.859 65.7894 124.822 64.8872C124.761 63.6314 124.53 63.0706 123.713 62.1806C122.908 61.3028 122.201 61.0102 120.823 60.9614C120.031 60.937 119.519 60.9858 119.202 61.1077ZM121.957 62.205C122.457 62.4366 123.213 63.156 123.457 63.6193C124.249 65.1554 123.676 67.0818 122.176 67.923C120.47 68.874 118.263 67.984 117.714 66.1186C117.483 65.3505 117.483 64.9116 117.726 64.1069C117.958 63.3023 118.824 62.3879 119.616 62.1075C120.262 61.8636 121.335 61.9124 121.957 62.205Z" fill="#FAF9F8"/>
<path d="M116.435 71.9572V72.5059H120.641H124.848V71.9572V71.4086H120.641H116.435V71.9572Z" fill="#FAF9F8"/>
</svg>
