<svg width="96" height="48" viewBox="0 0 96 48" fill="none" xmlns="http://www.w3.org/2000/svg">
<path d="M39.2279 0.0961876C35.6685 0.770668 31.0203 3.80989 25.9413 8.79129C22.6664 12.0093 19.9279 15.2598 16.8074 19.648L16.0191 20.7531L15.3934 20.8832C13.9144 21.2001 11.6715 21.4276 10.0788 21.4276C7.86842 21.4276 6.02375 20.7206 4.75604 19.3879C3.61023 18.1771 3.16329 16.7875 3.45583 15.3329C4.04093 12.44 6.95015 10.0427 11.7528 8.48249C15.8728 7.14165 19.9522 6.73534 23.2922 7.32856C24.5761 7.5561 25.3237 7.58047 25.7219 7.41795C26.3314 7.16603 26.5346 6.4753 26.1364 6.00398C25.7544 5.54891 24.8118 5.26449 23.0402 5.05321C19.5541 4.64689 14.3207 5.26449 10.6476 6.52406C4.23596 8.71003 0.0184052 12.7081 0.0102789 16.6088C0.00215258 19.5017 1.97685 21.9152 5.21924 22.9716C6.73886 23.4673 7.56775 23.5811 9.76185 23.5811C11.444 23.5811 11.9478 23.5486 12.9961 23.3942C13.6869 23.2885 14.2557 23.2154 14.272 23.2317C14.2801 23.2398 14.0444 23.6948 13.7356 24.2312C11.9153 27.3842 10.2982 31.1791 9.59933 33.9421C9.09549 35.933 8.99798 36.6806 8.98985 38.574C8.98985 40.4593 9.05486 40.955 9.44493 42.1658C10.3388 44.9206 12.4192 46.9116 15.1658 47.6348C18.7658 48.5937 23.2353 47.6186 27.1847 45.01C28.4199 44.1974 29.525 43.2791 30.7359 42.0521L31.8492 40.9306L31.8979 41.2394C32.0279 42.0439 32.865 43.2873 33.5882 43.7423C34.3764 44.2462 35.5141 44.3924 36.6843 44.1405C37.4401 43.978 38.7484 43.336 39.5854 42.7184C40.4631 42.0683 41.7795 40.7356 42.6734 39.6061L43.3641 38.7284L43.4698 39.2404C43.8192 40.9875 45.2169 41.9464 47.0129 41.662C48.1018 41.4914 49.3126 40.9388 50.5478 40.053C51.2629 39.5492 53.0995 37.8264 53.5952 37.2088L53.8065 36.9325L54.3184 37.412C56.3825 39.346 60.21 39.4517 63.6799 37.672C66.9548 35.998 69.3765 32.9425 70.3029 29.3101C70.7661 27.4979 70.823 26.7991 70.8311 22.6466C70.8392 20.5256 70.8717 18.3478 70.9042 17.8033L70.9692 16.8282L72.3507 15.2842C73.1064 14.439 73.8703 13.537 74.041 13.2689C74.6667 12.3587 74.748 11.5136 74.2766 11.0585C74.0572 10.8472 73.9678 10.8229 73.399 10.7985C72.2451 10.7416 70.7823 11.2617 69.9372 12.0255C69.1571 12.7244 68.7507 13.6427 68.3769 15.5442L68.1494 16.6738L66.3616 18.3396C65.3783 19.2498 63.6555 20.9157 62.526 22.0371C60.9251 23.6217 60.4375 24.158 60.2994 24.4668C60.0881 24.9544 60.1369 25.2957 60.47 25.6126C60.6732 25.8077 60.8032 25.8564 61.2014 25.8808C61.4777 25.9052 61.7865 25.8727 61.9246 25.8158C62.0547 25.767 63.3711 24.4831 64.8582 22.9635C66.3372 21.452 67.5806 20.2087 67.6131 20.2087C67.6456 20.2087 67.6293 20.5987 67.5724 21.0782C67.5155 21.5658 67.4099 22.8172 67.3449 23.8655C67.1417 26.9291 67.0523 27.7499 66.8492 28.79C65.9959 33.0319 63.4768 36.0955 60.3319 36.705C59.6086 36.8513 58.5116 36.77 57.9102 36.5425C57.2439 36.2824 56.6263 35.6648 56.4556 35.0797L56.3256 34.6572L56.9838 33.5926C58.3491 31.4067 58.731 30.3259 58.3653 29.7489C57.8777 28.9688 56.8782 28.7088 55.7243 29.0663C53.8308 29.6514 52.555 31.6911 52.7094 33.8852L52.7582 34.6003L52.2462 35.226C51.5067 36.1362 50.0521 37.6151 49.2557 38.2652C48.4025 38.956 47.3379 39.5086 46.8503 39.5086C46.4359 39.5086 46.1108 39.2485 46.0377 38.8503C45.8183 37.6639 47.6223 33.5845 51.8805 25.6533C53.8796 21.9314 55.0579 19.6073 55.2286 19.0629C55.3098 18.7947 55.3505 18.5184 55.318 18.3884C55.1961 17.909 54.3916 17.8033 53.327 18.1365C52.3844 18.4372 51.9618 18.746 51.5636 19.4611L51.2304 20.0462L51.011 19.7211C50.7428 19.3067 50.2634 18.9654 49.7839 18.8272C49.272 18.6809 48.0612 18.7622 47.346 18.9897C44.3556 19.9324 40.6012 23.126 37.2694 27.5629C35.9204 29.3589 35.3354 30.2934 33.2063 34.0233C30.7277 38.3709 29.9882 39.411 28.0379 41.2963C26.1607 43.1085 24.3079 44.2949 22.2032 45.0263C20.0823 45.7658 18.4082 45.7333 16.7505 44.9369C16.1085 44.6281 15.8728 44.4574 15.3202 43.8886C14.7595 43.3279 14.5808 43.076 14.2394 42.3771C13.6219 41.1257 13.4106 40.2237 13.3618 38.574C13.3131 37.0057 13.4349 35.9574 13.8656 34.2021C14.4426 31.8617 15.174 29.9358 16.6286 26.9941C17.5712 25.0926 19.0015 22.4759 19.2128 22.2728C19.2696 22.224 20.0823 21.9314 21.0168 21.6308C24.8118 20.42 27.7454 19.0629 31.8654 16.6088C38.7728 12.4969 42.9985 8.24683 43.8599 4.55751C44.0224 3.83427 44.0305 2.72097 43.8599 2.16026C43.5998 1.25824 42.9416 0.559387 42.0396 0.209957C41.4301 -0.0175781 40.1217 -0.0663376 39.2279 0.0961876ZM40.8369 2.28215C41.3163 2.59095 41.2594 3.44421 40.6825 4.67127C38.8134 8.62064 32.6943 13.8783 26.0957 17.1938C24.2348 18.1284 21.0899 19.4611 20.9843 19.3554C20.8949 19.2579 24.3486 14.5284 25.6813 12.9438C29.7282 8.10056 34.4902 4.13494 37.952 2.72097C39.4148 2.11963 40.3737 1.97335 40.8369 2.28215ZM48.2724 21.1513C49.272 21.8583 48.4593 25.3038 46.2246 29.757C43.0228 36.1687 38.4884 41.6701 36.1155 42.0358C35.8148 42.0846 35.7498 42.0602 35.5791 41.8733C34.6609 40.89 35.4329 37.607 37.5863 33.3001C40.2843 27.9205 44.3231 22.6547 46.6878 21.452C47.5086 21.0294 47.9718 20.94 48.2724 21.1513Z" fill="#443028"/>
<path d="M94.0315 8.65961C93.0239 8.98466 92.5932 9.30971 92.1869 10.0492L91.8618 10.6262L91.6262 10.2361C91.1792 9.52099 90.1878 9.17156 89.0014 9.31783C86.1409 9.68351 81.964 12.8934 78.3965 17.4685C75.4629 21.2391 73.2769 25.4322 72.6187 28.5364C72.4399 29.3572 72.3749 30.9174 72.4806 31.5025C72.7569 32.9734 73.6264 34.1111 74.8535 34.6068C75.5036 34.8668 76.8444 34.8668 77.6977 34.5986C79.6398 33.9892 81.7121 32.307 83.6299 29.7635C83.8168 29.5116 83.9956 29.3247 84.0199 29.3491C84.0443 29.3653 84.0931 29.5685 84.1256 29.796C84.2718 30.7387 84.8894 31.6 85.7021 31.9901C86.2953 32.2745 87.433 32.3151 88.2944 32.0795C90.7404 31.405 94.2103 28.4145 95.5755 25.7979C95.9819 25.034 96.055 24.5789 95.8356 24.197C95.6731 23.9045 95.2505 23.6201 94.9579 23.6201C94.6817 23.6201 94.2753 23.9451 93.8528 24.5139C92.837 25.8629 92.3819 26.4074 91.5124 27.3094C90.0171 28.8534 88.7657 29.7716 87.8312 30.0154C86.9942 30.2267 86.5472 29.7391 86.7097 28.7884C87.0348 26.9356 88.8876 22.9537 92.7557 15.7782C94.6491 12.2758 95.8762 9.79728 95.9412 9.36659C95.9981 9.01716 95.9819 8.96028 95.7706 8.74087C95.5674 8.52958 95.5024 8.50521 95.0148 8.51333C94.7223 8.51333 94.2753 8.57834 94.0315 8.65961ZM88.9932 11.7557C89.2614 12.0239 89.3427 12.3164 89.3345 13.0153C89.3264 15.4288 87.051 20.6621 83.9874 25.3103C82.419 27.6913 81.2489 29.1703 79.8024 30.5761C78.7866 31.5675 78.2421 31.982 77.5108 32.3151C76.5519 32.7702 76.178 32.6565 75.9343 31.8357C75.1704 29.2109 79.2417 20.6621 83.8899 15.1281C84.7107 14.1448 86.1409 12.7796 86.8398 12.3083C87.8068 11.6501 88.6682 11.4307 88.9932 11.7557Z" fill="#443028"/>
<path d="M87.271 40.5563C87.141 40.7514 87.0435 40.9302 87.0435 40.9627C87.0435 40.987 87.3198 41.0114 87.6529 41.0114H88.2624V44.5057V48H88.6281H88.9938V44.0994V40.1988H88.2462H87.4904L87.271 40.5563Z" fill="#443028"/>
<path d="M91.0244 40.5645V40.9301H92.8528C94.1205 40.9301 94.6813 40.9545 94.6813 41.0195C94.6813 41.0683 93.8767 42.6448 92.8935 44.5138C91.9102 46.391 91.1057 47.9431 91.1057 47.9675C91.1057 47.9919 91.2926 48 91.5201 47.9837L91.9264 47.9594L93.186 45.5621C93.8849 44.2457 94.795 42.4985 95.2176 41.6778L95.9896 40.1988H93.5111H91.0244V40.5645Z" fill="#443028"/>
<path d="M70.0596 44.14V48H70.4659H70.8722L70.8885 45.0989L70.9128 42.206L73.4157 45.0827C74.7972 46.6673 75.9755 47.9675 76.0405 47.9837C76.1381 48.0081 76.1543 47.423 76.1543 44.1482V40.2801H75.7886H75.4229V43.1649C75.4229 44.7495 75.3904 46.0497 75.3579 46.0497C75.3173 46.0497 74.1634 44.7495 72.7819 43.1649C71.4085 41.5803 70.2302 40.2801 70.1733 40.2801C70.0758 40.2801 70.0596 40.9302 70.0596 44.14Z" fill="#443028"/>
<path d="M79.4605 40.4024C78.3066 40.8412 77.5102 42.1495 77.6484 43.3603C77.7621 44.3355 78.4285 45.27 79.3061 45.6682C79.6149 45.8063 79.8425 45.847 80.4601 45.8389C81.1346 45.8389 81.289 45.8145 81.6953 45.6194C82.2804 45.335 82.833 44.7256 83.0605 44.1161C83.2068 43.7342 83.2311 43.5229 83.2068 42.9215C83.1661 42.0845 83.0117 41.7107 82.4673 41.1175C81.9309 40.5324 81.4596 40.3374 80.5413 40.3049C80.0131 40.2886 79.6718 40.3211 79.4605 40.4024ZM81.2971 41.1337C81.6303 41.2881 82.1341 41.7676 82.2966 42.0764C82.8248 43.1003 82.4429 44.3843 81.4434 44.945C80.3057 45.5788 78.8348 44.9856 78.4691 43.7423C78.3147 43.2303 78.3147 42.9378 78.4773 42.4014C78.6317 41.8651 79.2086 41.2556 79.7368 41.0687C80.1675 40.9062 80.8826 40.9387 81.2971 41.1337Z" fill="#443028"/>
<path d="M77.6172 47.6343V48H80.4208H83.2243V47.6343V47.2686H80.4208H77.6172V47.6343Z" fill="#443028"/>
</svg>
