<svg width="135" height="68" viewBox="0 0 135 68" fill="none" xmlns="http://www.w3.org/2000/svg">
<path d="M55.1168 0.67484C50.1145 1.62276 43.5818 5.89411 36.4438 12.895C31.8412 17.4176 27.9924 21.9859 23.6068 28.1531L22.499 29.7063L21.6196 29.889C19.541 30.3344 16.3889 30.6542 14.1504 30.6542C11.0439 30.6542 8.45142 29.6606 6.66978 27.7876C5.05944 26.0859 4.4313 24.133 4.84245 22.0887C5.66475 18.0229 9.75339 14.6538 16.5031 12.461C22.2934 10.5766 28.0267 10.0056 32.7206 10.8393C34.5251 11.1591 35.5758 11.1933 36.1354 10.9649C36.992 10.6109 37.2775 9.6401 36.7179 8.9777C36.1811 8.33814 34.8563 7.93841 32.3666 7.64148C27.467 7.07044 20.112 7.93841 14.9498 9.70863C5.93884 12.7808 0.0114559 18.3998 3.51135e-05 23.8817C-0.0113857 27.9475 2.76387 31.3395 7.32076 32.8242C9.45645 33.5208 10.6214 33.6807 13.705 33.6807C16.0691 33.6807 16.7772 33.635 18.2505 33.418C19.2212 33.2696 20.0207 33.1668 20.0435 33.1896C20.0549 33.201 19.7237 33.8406 19.2897 34.5944C16.7315 39.0256 14.4588 44.3591 13.4766 48.2421C12.7685 51.0402 12.6314 52.0909 12.62 54.7519C12.62 57.4015 12.7114 58.0982 13.2596 59.7999C14.5159 63.6715 17.4396 66.4696 21.2998 67.486C26.3592 68.8337 32.6406 67.4632 38.1912 63.7971C39.9271 62.6551 41.4803 61.3645 43.182 59.64L44.7467 58.0639L44.8152 58.4979C44.9979 59.6286 46.1743 61.3759 47.1907 62.0155C48.2985 62.7236 49.8975 62.9292 51.5421 62.5751C52.6042 62.3467 54.4429 61.4445 55.6193 60.5765C56.8527 59.6628 58.7029 57.7898 59.9592 56.2024L60.9299 54.9689L61.0784 55.6884C61.5695 58.1439 63.5339 59.4915 66.0579 59.0918C67.5883 58.852 69.29 58.0754 71.0259 56.8305C72.0309 56.1224 74.612 53.7012 75.3087 52.8332L75.6057 52.4449L76.3252 53.1188C79.226 55.8369 84.6052 55.9854 89.4819 53.4842C94.0845 51.1316 97.4879 46.8374 98.7899 41.7323C99.4408 39.1855 99.5208 38.2033 99.5322 32.3673C99.5436 29.3865 99.5893 26.3258 99.635 25.5606L99.7264 24.1901L101.668 22.0202C102.73 20.8324 103.804 19.5647 104.043 19.1878C104.923 17.9087 105.037 16.7209 104.375 16.0814C104.066 15.7844 103.941 15.7502 103.141 15.7159C101.519 15.636 99.4637 16.3669 98.2759 17.4404C97.1795 18.4226 96.6085 19.7132 96.0831 22.3856L95.7633 23.9731L93.2508 26.3143C91.8689 27.5935 89.4476 29.9347 87.8602 31.5108C85.6103 33.7378 84.925 34.4916 84.7309 34.9256C84.4339 35.6108 84.5024 36.0905 84.9707 36.5359C85.2562 36.81 85.439 36.8785 85.9986 36.9128C86.3869 36.947 86.8209 36.9013 87.015 36.8214C87.1978 36.7529 89.0479 34.9484 91.1379 32.8127C93.2165 30.6885 94.9639 28.9411 95.0096 28.9411C95.0553 28.9411 95.0324 29.4893 94.9525 30.1631C94.8725 30.8484 94.7241 32.6072 94.6327 34.0804C94.3472 38.386 94.2215 39.5395 93.936 41.0014C92.7368 46.963 89.1964 51.2686 84.7765 52.1252C83.7601 52.3307 82.2183 52.2165 81.3731 51.8967C80.4366 51.5313 79.5687 50.6633 79.3288 49.841L79.1461 49.2471L80.0712 47.751C81.9899 44.6789 82.5266 43.1599 82.0127 42.349C81.3275 41.2526 79.9227 40.8872 78.301 41.3897C75.6399 42.212 73.8469 45.0786 74.0638 48.1622L74.1324 49.1672L73.4129 50.0466C72.3736 51.3257 70.3292 53.4043 69.21 54.3179C68.0108 55.2887 66.5147 56.0653 65.8295 56.0653C65.247 56.0653 64.7902 55.6998 64.6874 55.1402C64.379 53.4728 66.9144 47.7396 72.8989 36.593C75.7084 31.3623 77.3645 28.096 77.6043 27.3308C77.7185 26.9539 77.7756 26.5656 77.7299 26.3829C77.5586 25.709 76.4279 25.5606 74.9318 26.0288C73.607 26.4514 73.0131 26.8854 72.4535 27.8904L71.9853 28.7127L71.6769 28.2559C71.3 27.6734 70.6262 27.1937 69.9524 26.9996C69.2329 26.794 67.5312 26.9082 66.5261 27.228C62.3233 28.5528 57.0469 33.0411 52.3643 39.2769C50.4685 41.8008 49.6462 43.1142 46.654 48.3563C43.1706 54.4664 42.1313 55.9283 39.3903 58.5779C36.7521 61.1247 34.1482 62.7921 31.1902 63.82C28.2094 64.8593 25.8567 64.8136 23.5269 63.6943C22.6246 63.2604 22.2934 63.0205 21.5168 62.2211C20.7288 61.433 20.4775 61.079 19.9978 60.0968C19.1299 58.338 18.8329 57.0703 18.7644 54.7519C18.6959 52.5477 18.8672 51.0745 19.4725 48.6076C20.2834 45.3184 21.3112 42.6117 23.3555 38.4774C24.6804 35.805 26.6904 32.1275 26.9874 31.842C27.0673 31.7734 28.2094 31.3623 29.5228 30.9397C34.8563 29.2381 38.9792 27.3308 44.7695 23.8817C54.4772 18.1029 60.416 12.1298 61.6266 6.94481C61.855 5.92837 61.8664 4.36373 61.6266 3.5757C61.2611 2.308 60.3361 1.32582 59.0684 0.83473C58.2118 0.51495 56.373 0.446426 55.1168 0.67484ZM57.3781 3.74701C58.0519 4.181 57.972 5.38017 57.1611 7.1047C54.5343 12.6552 45.9344 20.0444 36.6608 24.704C34.0454 26.0174 29.6256 27.8904 29.4771 27.7419C29.3515 27.6049 34.2053 20.958 36.0783 18.731C41.7659 11.9242 48.4584 6.35094 53.3237 4.36373C55.3794 3.5186 56.7271 3.31303 57.3781 3.74701ZM67.8281 30.2659C69.2329 31.2595 68.0908 36.1019 64.9501 42.3605C60.4503 51.3714 54.0775 59.1032 50.7426 59.6172C50.32 59.6857 50.2287 59.6514 49.9888 59.3887C48.6983 58.0068 49.7832 53.3929 52.8098 47.3399C56.6015 39.7794 62.2776 32.3787 65.601 30.6885C66.7545 30.0946 67.4055 29.969 67.8281 30.2659Z" fill="#FAF9F8"/>
<path d="M132.139 12.7124C130.723 13.1692 130.117 13.626 129.546 14.6653L129.089 15.4762L128.758 14.928C128.13 13.923 126.737 13.4319 125.069 13.6375C121.049 14.1514 115.179 18.6626 110.165 25.0924C106.042 30.3917 102.97 36.2847 102.045 40.6475C101.794 41.8009 101.702 43.9937 101.851 44.816C102.239 46.8832 103.461 48.4821 105.186 49.1787C106.099 49.5442 107.984 49.5442 109.183 49.1673C111.913 48.3108 114.825 45.9467 117.52 42.372C117.783 42.0179 118.034 41.7553 118.068 41.7895C118.103 41.8124 118.171 42.0979 118.217 42.4177C118.422 43.7425 119.29 44.9531 120.432 45.5013C121.266 45.901 122.865 45.9581 124.076 45.6269C127.513 44.679 132.39 40.4761 134.309 36.7987C134.88 35.7251 134.983 35.0856 134.674 34.5488C134.446 34.1376 133.852 33.7379 133.441 33.7379C133.052 33.7379 132.481 34.1948 131.887 34.9942C130.46 36.89 129.82 37.6552 128.598 38.9229C126.497 41.0929 124.738 42.3834 123.425 42.726C122.248 43.023 121.62 42.3377 121.849 41.0015C122.305 38.3976 124.909 32.8014 130.346 22.7169C133.007 17.7946 134.731 14.3113 134.823 13.706C134.903 13.2149 134.88 13.135 134.583 12.8266C134.297 12.5297 134.206 12.4954 133.521 12.5068C133.11 12.5068 132.481 12.5982 132.139 12.7124ZM125.058 17.0637C125.435 17.4406 125.549 17.8517 125.538 18.8339C125.526 22.2258 122.328 29.5808 118.023 36.1134C115.818 39.4597 114.174 41.5383 112.141 43.5141C110.713 44.9074 109.948 45.4898 108.92 45.9581C107.573 46.5976 107.047 46.4378 106.705 45.2843C105.631 41.5954 111.353 29.5808 117.886 21.8033C119.039 20.4214 121.049 18.5027 122.031 17.8403C123.39 16.9152 124.601 16.6068 125.058 17.0637Z" fill="#FAF9F8"/>
<path d="M122.637 57.5386C122.454 57.8127 122.317 58.064 122.317 58.1097C122.317 58.1439 122.706 58.1782 123.174 58.1782H124.031V63.0891V68H124.544H125.058V62.5181V57.0361H124.008H122.946L122.637 57.5386Z" fill="#FAF9F8"/>
<path d="M127.911 57.5504V58.0643H130.481C132.262 58.0643 133.05 58.0986 133.05 58.1899C133.05 58.2585 131.92 60.4741 130.538 63.1009C129.156 65.739 128.025 67.9204 128.025 67.9547C128.025 67.9889 128.288 68.0003 128.608 67.9775L129.179 67.9432L130.949 64.5741C131.931 62.724 133.21 60.2685 133.804 59.115L134.889 57.0365H131.406H127.911V57.5504Z" fill="#FAF9F8"/>
<path d="M98.4473 62.5752V68H99.0183H99.5893L99.6122 63.9228L99.6464 59.857L103.164 63.9C105.106 66.127 106.762 67.9543 106.853 67.9772C106.99 68.0114 107.013 67.1891 107.013 62.5866V57.1503H106.499H105.985V61.2047C105.985 63.4317 105.939 65.259 105.894 65.259C105.837 65.259 104.215 63.4317 102.273 61.2047C100.343 58.9776 98.6871 57.1503 98.6072 57.1503C98.4701 57.1503 98.4473 58.064 98.4473 62.5752Z" fill="#FAF9F8"/>
<path d="M111.66 57.3215C110.039 57.9382 108.92 59.777 109.114 61.4787C109.274 62.8492 110.21 64.1625 111.444 64.7222C111.877 64.9163 112.197 64.9734 113.065 64.962C114.013 64.962 114.23 64.9277 114.801 64.6536C115.624 64.2539 116.4 63.3974 116.72 62.5408C116.925 62.004 116.96 61.7071 116.925 60.862C116.868 59.6856 116.651 59.1603 115.886 58.3266C115.132 57.5043 114.47 57.2302 113.179 57.1845C112.437 57.1616 111.957 57.2073 111.66 57.3215ZM114.242 58.3494C114.71 58.5664 115.418 59.2402 115.646 59.6742C116.389 61.1132 115.852 62.9177 114.447 63.7057C112.848 64.5965 110.781 63.7628 110.267 62.0154C110.05 61.2959 110.05 60.8848 110.279 60.131C110.496 59.3773 111.306 58.5207 112.049 58.258C112.654 58.0296 113.659 58.0753 114.242 58.3494Z" fill="#FAF9F8"/>
<path d="M109.068 67.4861V68H113.009H116.949V67.4861V66.9721H113.009H109.068V67.4861Z" fill="#FAF9F8"/>
</svg>
