<svg width="100" height="100" viewBox="0 0 100 100" fill="none" xmlns="http://www.w3.org/2000/svg">
<g clip-path="url(#clip0_474_3661)">
<mask id="mask0_474_3661" style="mask-type:luminance" maskUnits="userSpaceOnUse" x="0" y="0" width="100" height="100">
<path d="M0 100H100V0H0V100Z" fill="white"/>
</mask>
<g mask="url(#mask0_474_3661)">
<path d="M72.0418 52.8508C73.0924 52.8208 74.2086 52.9064 74.791 53.2943C75.3737 53.6809 76.0758 54.827 76.7837 55.7496C80.0961 60.0612 85.9704 61.8645 91.2916 59.793C97.7524 57.2793 100.949 50.002 98.4341 43.5429C95.9192 37.0821 88.6447 33.8838 82.184 36.3988C78.9898 37.6429 76.5958 40.0518 75.2932 42.9508C75.074 43.4406 74.953 43.7157 74.5815 44.0803C74.2086 44.4451 73.4506 44.6766 72.8434 44.8018C69.2776 45.5381 66.2821 45.5639 63.7752 45.1842L63.3341 46.3764C63.1926 46.7724 62.3283 49.2032 61.0518 52.7797C64.0119 52.75 68.2746 52.9596 72.0418 52.8508ZM84.277 41.7723C87.768 40.414 91.7012 42.1424 93.061 45.6348C94.4192 49.127 92.6907 53.059 89.1998 54.4185C85.7074 55.7796 81.7756 54.0496 80.4144 50.5588C79.0562 47.0666 80.7847 43.1332 84.277 41.7723Z" fill="#443028"/>
<path d="M0.885701 66.9591C1.62339 68.8562 3.89078 69.0661 9.50894 67.6055C12.5521 66.8147 26.618 62.5849 38.8886 58.8692C40.0986 52.5761 41.1914 46.928 41.8313 43.6289C29.3535 49.62 10.2086 58.8407 6.80348 60.6495C1.67496 63.3743 0.145271 65.0619 0.885701 66.9591Z" fill="#443028"/>
<path d="M40.6951 23.2522C41.686 23.8604 42.8986 24.4389 43.3451 24.978C43.79 25.5185 43.9916 26.6194 44.0704 27.6674C44.4597 32.8037 45.5404 38.8112 45.4057 41.2364C45.4057 41.2364 36.777 85.6536 35.91 91.3942C35.0431 97.1364 35.4881 99.3682 37.4506 99.9059C39.4145 100.442 40.9334 98.7461 43.1095 93.3636C45.2843 87.9794 60.4581 45.3534 60.4581 45.3534C60.4581 45.3534 50.4628 41.3889 51.9939 26.0313C52.0552 25.4161 52.2063 24.6376 52.5303 24.2294C52.854 23.8195 53.114 23.6713 53.5781 23.4018C56.326 21.8067 58.4722 19.1731 59.376 15.8661C61.2051 9.17955 57.2664 2.27662 50.5812 0.447325C43.8933 -1.38041 36.9904 2.55826 35.1627 9.24478C33.6563 14.7528 36.0625 20.4077 40.6951 23.2522ZM52.3943 45.2579C53.6601 45.6036 54.4058 46.9086 54.0588 48.1745C53.7131 49.4401 52.4081 50.1859 51.1422 49.8403C49.8764 49.4933 49.1321 48.1868 49.4778 46.9224C49.8234 45.6567 51.1298 44.9124 52.3943 45.2579ZM40.7252 10.7665C41.7133 7.15181 45.4451 5.02311 49.06 6.01119C52.6748 6.99928 54.8033 10.7311 53.8152 14.3459C52.8272 17.9607 49.0939 20.0894 45.4804 19.0998C41.8657 18.113 39.7372 14.3799 40.7252 10.7665Z" fill="#443028"/>
</g>
</g>
<defs>
<clipPath id="clip0_474_3661">
<rect width="100" height="100" fill="white"/>
</clipPath>
</defs>
</svg>
