<svg width="95" height="52" viewBox="0 0 95 52" fill="none" xmlns="http://www.w3.org/2000/svg">
<path d="M31.3829 1.03282C31.5173 1.08468 31.5173 1.08468 31.6544 1.13759C34.6024 2.30012 37.2493 4.04148 39.7399 5.97829C44.3251 9.53198 49.4861 13.0276 55.5235 12.5667C57.29 12.3411 58.8675 11.5685 60.459 10.8117C62.5494 9.81948 64.7003 8.92435 66.9233 8.275C67.0773 8.22954 67.2313 8.18407 67.39 8.13722C69.1635 7.68607 71.4414 7.49876 73.0925 8.40912C73.199 8.46755 73.3055 8.52599 73.4152 8.58619C74.5786 9.29586 75.466 10.329 75.9089 11.6279C75.9576 12.0491 75.9433 12.4093 75.9089 12.8349C75.4444 12.7583 75.2531 12.6149 74.945 12.2649C73.9662 11.2507 72.8433 10.8533 71.4523 10.8096C68.5988 10.8905 65.8685 12.162 63.3058 13.3132C58.4312 15.502 53.6859 17.36 48.3877 15.4543C44.2603 13.8829 40.5762 10.9888 37.033 8.41098C31.9018 4.61519 31.9018 4.61519 25.716 3.91104C24.6499 4.14735 23.5572 4.56598 22.7744 5.35015C22.5313 5.59271 22.5313 5.59271 22.2631 5.59271C22.2258 5.67207 22.1884 5.75142 22.1499 5.83318C21.7652 6.5675 21.2186 7.06929 20.5364 7.52899C19.1941 8.43995 18.2048 9.52375 17.8766 11.1627C17.8141 11.6302 17.7574 12.0981 17.7032 12.5667C17.5221 14.066 16.4105 14.9697 15.2856 15.8685C14.5896 16.4037 13.8739 16.9078 13.1433 17.3948C13.3364 18.0706 13.6823 18.3156 14.2162 18.7359C14.4295 19.1625 14.4049 19.6127 14.3503 20.0771C14.2216 20.3037 14.0883 20.528 13.948 20.7477C13.9352 21.0432 13.9352 21.0432 14.0821 21.2841C14.3482 21.4564 14.3482 21.4564 14.6186 21.5523C14.6186 21.7736 14.6186 21.9949 14.6186 22.2229C14.4858 22.2672 14.353 22.3114 14.2162 22.357C14.0519 22.7605 14.0519 22.7605 13.948 23.1617C14.0365 23.1617 14.125 23.1617 14.2162 23.1617C14.4348 23.4961 14.4862 23.6715 14.4593 24.0754C14.3503 24.5029 14.3503 24.5029 14.1324 24.9639C13.9207 25.5125 13.9354 25.8164 14.0821 26.3805C14.4057 26.5423 14.6032 26.5291 14.9644 26.5256C15.156 26.5242 15.156 26.5242 15.3515 26.5229C15.4905 26.5214 15.6295 26.5198 15.7727 26.5183C16.0682 26.5166 16.3638 26.5149 16.6594 26.5133C17.1243 26.51 17.5892 26.5063 18.054 26.5017C23.8474 26.4487 23.8474 26.4487 25.8842 28.3922C27.0122 29.6052 27.5591 31.1944 27.7618 32.818C27.7042 33.1412 27.7042 33.1412 27.6277 33.3544C27.3951 33.3419 27.3951 33.3419 27.0912 33.2203C26.8807 32.9322 26.7004 32.655 26.5212 32.3486C25.4419 30.5992 24.3115 29.4687 22.2615 28.9554C20.2111 28.4959 18.1839 28.7113 16.1085 28.8626C12.5349 29.1187 12.5349 29.1187 11.4082 28.2078C10.8811 27.5369 10.7861 26.9535 10.8634 26.1122C10.918 25.8354 10.974 25.5588 11.031 25.2824C11.1618 24.6648 11.1618 24.6648 10.8801 24.1173C10.7861 24.0232 10.692 23.9292 10.5951 23.8323C10.5105 23.3996 10.5231 23.1512 10.7465 22.7678C10.912 22.5339 11.083 22.3093 11.2657 22.0888C11.1993 21.9975 11.1329 21.9062 11.0645 21.8122C10.8149 21.3233 10.7943 21.0221 10.8634 20.4794C11.0367 20.2953 11.2153 20.1159 11.3998 19.943C11.5231 19.6256 11.5231 19.6256 11.3998 19.2724C11.1786 19.0173 10.9446 18.7923 10.6926 18.5678C10.297 18.1677 10.2003 17.8389 10.1006 17.2858C10.1129 16.9163 10.1542 16.7679 10.4013 16.4885C10.7236 16.2346 11.0561 16.0095 11.3998 15.7854C11.688 15.5876 11.9757 15.3892 12.2632 15.1903C12.3371 15.1396 12.411 15.0889 12.4872 15.0367C14.1822 13.9517 14.1822 13.9517 15.0691 12.2492C15.1143 12.0392 15.1143 12.0392 15.1604 11.8249C15.1918 11.6769 15.2233 11.5289 15.2556 11.3764C15.7894 9.03274 16.606 7.17044 18.6923 5.81903C18.8261 5.73933 18.9599 5.65963 19.0978 5.57752C19.6579 5.17133 19.8569 4.64353 20.1257 4.02525C20.9851 2.3166 22.4926 1.49619 24.213 0.856268C26.4651 0.175891 29.1849 0.178842 31.3829 1.03282Z" fill="#201713"/>
<path d="M0 35.6367C1.10645 35.6367 2.21289 35.6367 3.35286 35.6367C3.95642 37.1456 3.95642 37.1456 4.19219 37.8908C4.24499 38.0569 4.29778 38.2229 4.35218 38.3939C4.40781 38.5707 4.46343 38.7474 4.51903 38.9241C4.57772 39.1094 4.63645 39.2946 4.69522 39.4799C4.81747 39.8656 4.9394 40.2515 5.06106 40.6374C5.21633 41.1299 5.37216 41.6223 5.5282 42.1145C5.67816 42.5877 5.82786 43.061 5.97753 43.5343C6.0057 43.6233 6.03387 43.7123 6.0629 43.8041C6.14323 44.0581 6.22334 44.3121 6.30345 44.5662C6.34889 44.7101 6.39432 44.8541 6.44114 45.0024C6.58031 45.4554 6.71109 45.9099 6.83984 46.3659C7.09182 45.9879 7.22373 45.6811 7.37411 45.2561C7.42562 45.1114 7.47714 44.9667 7.53022 44.8176C7.5854 44.6609 7.64059 44.5041 7.69744 44.3426C7.78545 44.095 7.87345 43.8473 7.96147 43.5997C8.08492 43.2519 8.20786 42.904 8.33081 42.556C8.54402 41.9528 8.75786 41.3498 8.97195 40.7469C9.08567 40.4265 9.19914 40.106 9.31231 39.7854C9.46994 39.3407 9.62965 38.8968 9.79036 38.4531C9.84657 38.296 9.90277 38.1389 9.96067 37.977C10.0173 37.8232 10.0739 37.6693 10.1323 37.5109C10.1825 37.373 10.2327 37.2352 10.2845 37.0933C10.512 36.5987 10.7677 36.1539 11.2656 35.9049C11.7005 35.8623 12.1365 35.8615 12.5732 35.8547C12.7532 35.8471 12.7532 35.8471 12.9368 35.8395C13.054 35.8379 13.1712 35.8364 13.292 35.8347C13.4517 35.8308 13.4517 35.8308 13.6146 35.8267C14.1261 35.9468 14.4366 36.1678 14.7526 36.5755C15.0285 37.1447 15.2246 37.7356 15.4237 38.3353C15.4839 38.5103 15.5443 38.6852 15.6049 38.8601C15.7636 39.3201 15.9193 39.7811 16.0743 40.2423C16.2305 40.7054 16.3895 41.1675 16.5482 41.6297C16.7827 42.313 17.0155 42.9969 17.2471 43.6812C17.5676 44.6246 17.9017 45.5627 18.2396 46.5C18.469 45.8156 18.6982 45.131 18.9269 44.4464C18.962 44.3413 18.9972 44.2362 19.0334 44.1279C19.7436 42.0007 20.4385 39.8685 21.1286 37.7347C21.1676 37.6145 21.2065 37.4943 21.2467 37.3704C21.32 37.1441 21.3932 36.9177 21.4662 36.6913C21.7114 35.9352 21.7114 35.9352 21.8607 35.6367C22.9671 35.6367 24.0736 35.6367 25.2135 35.6367C25.1212 36.2834 25.0376 36.767 24.8355 37.3662C24.7599 37.5922 24.7599 37.5922 24.6828 37.8228C24.6278 37.9845 24.5729 38.1461 24.5163 38.3127C24.4583 38.4852 24.4004 38.6577 24.3426 38.8302C24.2197 39.1966 24.0964 39.5628 23.9726 39.9288C23.682 40.7885 23.3936 41.6489 23.1051 42.5092C23.0084 42.7974 22.9117 43.0856 22.8149 43.3737C22.1774 45.2735 21.558 47.179 20.9456 49.0871C20.8759 49.3032 20.8062 49.5194 20.7364 49.7355C20.6913 49.8772 20.6913 49.8772 20.6453 50.0218C20.4544 50.6127 20.2297 51.155 19.9831 51.7305C18.8766 51.7305 17.7702 51.7305 16.6302 51.7305C16.0267 50.2217 16.0267 50.2217 15.8427 49.7116C15.801 49.5963 15.7592 49.4809 15.7162 49.362C15.6513 49.1815 15.6513 49.1815 15.5851 48.9974C15.5384 48.8682 15.4918 48.7391 15.4437 48.6061C15.2941 48.1919 15.1449 47.7776 14.9957 47.3634C14.8931 47.0791 14.7905 46.7949 14.6879 46.5107C14.4402 45.8243 14.1927 45.1378 13.9454 44.4513C13.8269 44.1222 13.7083 43.7932 13.5897 43.4642C13.2616 42.554 12.9339 41.6436 12.6068 40.7331C12.1145 41.8851 11.6621 43.0491 11.2236 44.2223C11.11 44.5262 10.996 44.83 10.882 45.1337C10.5995 45.8861 10.3176 46.6386 10.0358 47.3912C9.7959 48.0318 9.55575 48.6723 9.31519 49.3126C9.20279 49.6122 9.09082 49.9118 8.97886 50.2115C8.91056 50.3934 8.84224 50.5753 8.7739 50.7572C8.71427 50.9164 8.65464 51.0757 8.59321 51.2397C8.44922 51.5964 8.44922 51.5964 8.3151 51.7305C8.07628 51.7422 7.83701 51.7448 7.59791 51.7436C7.45312 51.7431 7.30833 51.7427 7.15915 51.7423C7.00676 51.7411 6.85436 51.74 6.69735 51.7388C6.54443 51.7382 6.39152 51.7376 6.23397 51.737C5.85476 51.7354 5.47556 51.7332 5.09635 51.7305C4.07098 48.6959 3.07828 45.6509 2.09554 42.6023C2.03709 42.421 1.97864 42.2398 1.92019 42.0585C1.59491 41.0496 1.27052 40.0404 0.94707 39.0309C0.813653 38.6152 0.679511 38.1997 0.545233 37.7842C0.470676 37.5519 0.39615 37.3196 0.321665 37.0874C0.28823 36.9846 0.254795 36.8818 0.220347 36.7759C0.0941561 36.3802 0 36.0549 0 35.6367Z" fill="#201713"/>
<path d="M37.339 11.702C42.36 15.8778 48.1135 20.1781 54.9873 19.6757C58.1121 19.3187 61.068 17.9014 63.9158 16.6576C72.1963 13.0419 72.1963 13.0419 75.9092 14.2693C77.406 14.9056 78.5255 15.8833 79.1866 17.3958C79.42 18.0485 79.5369 18.7133 79.5303 19.4075C79.486 19.496 79.4418 19.5845 79.3962 19.6757C78.8375 19.6103 78.6367 19.3264 78.2897 18.9046C77.2562 17.7265 76.2051 17.2725 74.6445 17.0893C71.1584 16.9543 67.6023 18.8461 64.5292 20.2533C59.5977 22.5025 53.8284 24.5751 48.4157 22.8945C48.3269 22.8672 48.2381 22.8399 48.1465 22.8117C45.3735 21.9278 42.8415 20.3966 40.7303 18.4043C40.4438 18.1365 40.1535 17.8794 39.8565 17.6237C39.1888 17.0424 38.5743 16.4128 37.9548 15.7812C37.4272 15.2475 36.8853 14.7434 36.3167 14.2538C36.013 13.9865 35.7351 13.6993 35.4569 13.4059C33.6594 11.5918 31.2615 9.73028 28.6081 9.59934C27.6494 9.60195 26.7043 9.65655 25.7503 9.75127C25.7061 9.57424 25.6618 9.39721 25.6162 9.21481C29.3763 5.61817 34.2008 9.09196 37.339 11.702Z" fill="#201713"/>
<path d="M34.5261 16.6486C36.5877 17.5062 38.3231 19.0607 39.8629 20.6427C40.278 21.0606 40.7256 21.4381 41.1732 21.8204C41.3001 21.9325 41.427 22.0445 41.5577 22.1599C45.3929 25.5199 49.621 26.9526 54.7188 26.6486C55.8131 26.5196 56.8749 26.2641 57.9375 25.978C58.0548 25.9471 58.1721 25.9163 58.2929 25.8845C60.3649 25.3306 62.33 24.5394 64.2838 23.6614C74.3941 19.1264 74.3941 19.1264 78.6142 20.6951C80.1185 21.4348 81.1968 22.5382 81.8099 24.1004C82.0297 24.8222 82.1101 25.4941 82.0781 26.2462C81.8126 26.379 81.8126 26.379 81.5417 26.5144C81.4751 26.427 81.4085 26.3395 81.34 26.2494C80.2037 24.7875 79.133 23.887 77.2584 23.598C73.5381 23.2895 70.0227 25.1693 66.7445 26.6589C60.8287 29.3438 53.9689 31.8825 47.4766 29.5991C44.0082 28.2182 41.3165 25.7221 38.7088 23.1281C38.6083 23.0282 38.5078 22.9284 38.4043 22.8255C37.8612 22.2807 37.3429 21.7232 36.8404 21.141C35.862 20.0237 34.8058 18.9634 33.5957 18.0988C33.5219 18.046 33.448 17.9932 33.372 17.9388C32.8644 17.5914 32.3532 17.3531 31.7852 17.1264C31.7852 16.9494 31.7852 16.7724 31.7852 16.59C32.5627 16.2012 33.7272 16.3871 34.5261 16.6486Z" fill="#201713"/>
<path d="M30.8458 35.6162C30.9755 35.6174 31.1051 35.6187 31.2387 35.62C31.664 35.6245 32.0891 35.6309 32.5144 35.6374C32.8105 35.6409 33.1067 35.6443 33.4028 35.6476C34.1798 35.6565 34.9568 35.6671 35.7337 35.678C36.5275 35.6889 37.3214 35.6982 38.1152 35.7076C39.671 35.7263 41.2268 35.7468 42.7825 35.7684C42.7648 35.9796 42.7461 36.1907 42.727 36.4018C42.7115 36.5781 42.7115 36.5781 42.6957 36.7581C42.6149 37.3585 42.4314 37.8985 42.0976 38.41C41.6928 38.6887 41.2572 38.6425 40.7826 38.6407C40.6206 38.6424 40.6206 38.6424 40.4554 38.6442C40.0981 38.6475 39.7408 38.6481 39.3836 38.6487C39.1355 38.6506 38.8875 38.6528 38.6395 38.6551C37.9861 38.6607 37.3328 38.664 36.6794 38.6668C35.6335 38.6716 34.5877 38.6798 33.5419 38.688C33.1761 38.6906 32.8104 38.6922 32.4446 38.6936C32.2209 38.695 31.9971 38.6964 31.7733 38.6978C31.6203 38.698 31.6203 38.698 31.4642 38.6982C31.0435 38.7015 30.712 38.719 30.3099 38.853C29.8284 39.816 30.0905 40.9963 30.0416 42.0718C33.0069 42.0718 35.9722 42.0718 39.0273 42.0718C39.0273 43.0455 39.0273 44.0191 39.0273 45.0223C36.062 45.0223 33.0968 45.0223 30.0416 45.0223C30.0859 46.173 30.1301 47.3237 30.1757 48.5093C30.6808 48.846 31.0752 48.813 31.6596 48.8075C31.7698 48.8076 31.8799 48.8076 31.9934 48.8077C32.2327 48.8077 32.472 48.8072 32.7113 48.8061C33.0901 48.8048 33.4689 48.8055 33.8477 48.8068C34.9248 48.8106 36.0018 48.8123 37.0789 48.8084C37.7376 48.8061 38.3963 48.8078 39.0551 48.8119C39.3061 48.8127 39.5571 48.8121 39.808 48.8099C40.1594 48.807 40.5103 48.8091 40.8616 48.8122C40.9652 48.8102 41.0687 48.8081 41.1754 48.806C41.5658 48.8135 41.8813 48.8332 42.1913 49.0852C42.5452 49.4957 42.7408 49.8623 42.8244 50.3953C42.8433 50.5047 42.8621 50.6141 42.8815 50.7269C42.9173 51.0633 42.919 51.39 42.9166 51.728C41.1341 51.7405 39.3515 51.75 37.5689 51.7558C36.7412 51.7586 35.9134 51.7624 35.0857 51.7685C34.2865 51.7743 33.4874 51.7775 32.6882 51.7789C32.3837 51.7799 32.0791 51.7819 31.7745 51.7848C31.3472 51.7887 30.92 51.7892 30.4927 51.7889C30.3674 51.7909 30.2421 51.7928 30.113 51.7948C29.1107 51.7885 28.4202 51.5287 27.6611 50.8731C26.9164 50.0043 26.6692 49.3829 26.6629 48.2554C26.6618 48.1477 26.6607 48.0399 26.6596 47.9288C26.6562 47.5717 26.654 47.2146 26.6521 46.8575C26.6514 46.7352 26.6507 46.613 26.6499 46.487C26.6463 45.8394 26.6438 45.1918 26.6418 44.5441C26.64 44.0096 26.6363 43.4751 26.6308 42.9406C26.6242 42.294 26.6209 41.6475 26.6199 41.0009C26.619 40.7553 26.617 40.5098 26.6138 40.2642C26.582 37.702 26.582 37.702 27.3593 36.7072C28.3752 35.714 29.479 35.5909 30.8458 35.6162Z" fill="#201713"/>
<path d="M83.998 35.5843C84.1441 35.581 84.2903 35.5777 84.4409 35.5743C85.4635 35.5706 86.348 35.6529 87.1248 36.3735C87.8263 37.2216 88.2376 38.2952 88.692 39.2892C88.7856 39.4915 88.8794 39.6937 88.9733 39.8959C89.1696 40.3187 89.3654 40.7418 89.5609 41.165C89.9868 42.0854 90.4211 43.0018 90.8553 43.9184C91.0916 44.4176 91.3272 44.9171 91.5629 45.4166C91.9075 46.1468 92.2529 46.8766 92.599 47.6061C92.7996 48.0293 92.9999 48.4527 93.2001 48.876C93.2953 49.0771 93.3907 49.2781 93.4862 49.479C93.6181 49.7564 93.7494 50.034 93.8805 50.3117C93.9552 50.4692 94.0299 50.6267 94.1069 50.789C94.2829 51.1919 94.2829 51.1919 94.417 51.7283C93.1335 51.7283 91.85 51.7283 90.5277 51.7283C90.0851 50.7989 89.6425 49.8695 89.1865 48.9119C85.7344 48.9119 82.2823 48.9119 78.7256 48.9119C78.1281 50.2397 78.1281 50.2397 77.5186 51.5942C77.3844 51.7283 77.3844 51.7283 77.0122 51.7436C76.8499 51.7429 76.6877 51.7422 76.5206 51.7414C76.3455 51.741 76.1705 51.7406 75.9901 51.7401C75.8039 51.739 75.6176 51.7379 75.4314 51.7367C75.2446 51.736 75.0579 51.7354 74.8711 51.7349C74.4124 51.7333 73.9538 51.7311 73.4951 51.7283C74.2294 50.0793 74.9812 48.44 75.7597 46.8113C76.0361 46.233 76.3115 45.6542 76.5871 45.0755C76.6427 44.9588 76.6983 44.8421 76.7556 44.7218C77.3124 43.5525 77.8645 42.3809 78.4154 41.2087C78.4578 41.1187 78.5001 41.0286 78.5437 40.9358C78.6261 40.7605 78.7085 40.5852 78.7908 40.4099C78.8706 40.2403 78.9504 40.0708 79.0304 39.9013C79.2491 39.4377 79.4643 38.9727 79.6762 38.5059C79.7234 38.4029 79.7706 38.2999 79.8193 38.1938C79.9101 37.9958 80 37.7973 80.0889 37.5983C80.4916 36.7245 80.9911 36.1561 81.8736 35.7504C82.5807 35.5773 83.2726 35.5851 83.998 35.5843ZM83.0507 39.1467C82.7654 39.5606 82.5566 40.0026 82.3472 40.4585C82.2995 40.5601 82.2517 40.6617 82.2025 40.7663C82.0511 41.0893 81.9013 41.413 81.7515 41.7368C81.6517 41.9499 81.5517 42.1629 81.4516 42.3759C80.3869 44.2489 80.3869 44.2489 79.7985 46.2296C82.5711 46.2606 85.3423 46.1697 88.1136 46.0955C87.2788 43.938 86.2843 41.8336 85.2134 39.7837C85.1302 39.6235 85.1302 39.6235 85.0454 39.46C84.7963 38.9346 84.7963 38.9346 84.3584 38.5851C83.6821 38.4799 83.4656 38.618 83.0507 39.1467Z" fill="#201713"/>
<path d="M44.6602 35.6367C45.7224 35.6367 46.7846 35.6367 47.879 35.6367C47.8816 36.0117 47.8843 36.3868 47.887 36.7732C47.896 38.0113 47.9064 39.2495 47.9176 40.4876C47.9243 41.2384 47.9305 41.9892 47.9356 42.74C47.9405 43.4644 47.9467 44.1887 47.9538 44.9131C47.9563 45.1897 47.9583 45.4662 47.9599 45.7428C47.9622 46.1297 47.9661 46.5166 47.9703 46.9035C47.9706 47.0182 47.9709 47.1329 47.9712 47.2511C47.9727 47.3568 47.9742 47.4625 47.9758 47.5714C47.9765 47.6628 47.9772 47.7543 47.978 47.8486C48.0202 48.1621 48.1168 48.3767 48.2813 48.6458C48.6589 48.8346 48.972 48.7956 49.3942 48.7947C49.5737 48.7948 49.7533 48.7949 49.9328 48.795C50.0281 48.7948 50.1234 48.7946 50.2215 48.7944C50.7259 48.7939 51.2302 48.7974 51.7345 48.8001C52.3765 48.8034 53.0183 48.8055 53.6603 48.8034C54.1789 48.8019 54.6974 48.8042 55.216 48.8091C55.4135 48.8103 55.611 48.81 55.8084 48.8082C57.3503 48.7956 57.3503 48.7956 57.8047 49.0866C58.1625 49.4985 58.3076 49.941 58.3818 50.4731C58.4007 50.5966 58.4195 50.72 58.4389 50.8472C58.474 51.194 58.474 51.194 58.474 51.7305C56.9666 51.7398 55.4592 51.7469 53.9518 51.7513C53.2518 51.7534 52.5518 51.7563 51.8519 51.7608C51.1762 51.7652 50.5006 51.7676 49.8249 51.7686C49.5673 51.7694 49.3096 51.7708 49.052 51.773C48.6908 51.7759 48.3297 51.7763 47.9685 51.7761C47.8623 51.7776 47.7561 51.779 47.6467 51.7805C46.702 51.7753 46.0206 51.4451 45.3308 50.7917C44.8707 50.1308 44.6431 49.5335 44.6441 48.7326C44.6439 48.6167 44.6437 48.5009 44.6436 48.3815C44.6443 48.1926 44.6443 48.1926 44.645 47.9998C44.645 47.8662 44.645 47.7327 44.645 47.5952C44.645 47.154 44.6461 46.7128 44.6471 46.2716C44.6474 45.9657 44.6476 45.6597 44.6477 45.3538C44.6482 44.5486 44.6495 43.7434 44.651 42.9382C44.6524 42.1165 44.653 41.2949 44.6537 40.4732C44.6551 38.8611 44.6575 37.2489 44.6602 35.6367Z" fill="#201713"/>
<path d="M59.8153 35.6367C60.8774 35.6367 61.9396 35.6367 63.034 35.6367C63.036 36.0206 63.0379 36.4044 63.0399 36.7999C63.0467 38.0664 63.0556 39.333 63.0656 40.5995C63.0716 41.3676 63.0769 42.1357 63.0805 42.9038C63.084 43.6447 63.0894 44.3855 63.0961 45.1264C63.0984 45.4094 63.0999 45.6925 63.1007 45.9755C63.102 46.3712 63.1058 46.7667 63.1101 47.1624C63.1098 47.3389 63.1098 47.3389 63.1096 47.519C63.1006 48.1019 63.1006 48.1019 63.3467 48.6087C63.7085 48.8856 64.0545 48.834 64.5026 48.8379C64.5968 48.8393 64.691 48.8407 64.7881 48.8421C65.0995 48.8461 65.4107 48.8474 65.7221 48.8486C65.938 48.8508 66.1539 48.8533 66.3698 48.8559C66.938 48.8623 67.5062 48.8662 68.0744 48.8697C68.6542 48.8737 69.234 48.88 69.8139 48.886C70.9515 48.8976 72.0891 48.9066 73.2267 48.9141C73.0264 49.5636 72.764 50.1631 72.4723 50.7749C72.4288 50.8672 72.3852 50.9595 72.3403 51.0547C72.2338 51.2801 72.1268 51.5053 72.0197 51.7305C70.7093 51.746 69.3989 51.7579 68.0884 51.7652C67.4798 51.7687 66.8713 51.7734 66.2627 51.7811C65.6749 51.7884 65.0871 51.7924 64.4992 51.7941C64.2755 51.7953 64.0518 51.7977 63.8281 51.8014C61.7123 51.8344 61.7123 51.8344 60.9443 51.2444C59.9793 50.3087 59.7104 49.5151 59.672 48.1968C59.67 47.862 59.6732 47.5276 59.6782 47.1928C59.6795 47.0671 59.6808 46.9413 59.6821 46.8117C59.6865 46.4003 59.6919 45.9889 59.6974 45.5774C59.7006 45.2905 59.7038 45.0036 59.707 44.7166C59.7154 43.9646 59.7246 43.2125 59.7341 42.4605C59.7436 41.6918 59.7523 40.9231 59.761 40.1544C59.7783 38.6485 59.7966 37.1426 59.8153 35.6367Z" fill="#201713"/>
</svg>
