<svg width="287" height="287" viewBox="0 0 287 287" fill="none" xmlns="http://www.w3.org/2000/svg">
<g clip-path="url(#clip0_446_2772)">
<mask id="mask0_446_2772" style="mask-type:luminance" maskUnits="userSpaceOnUse" x="0" y="0" width="287" height="287">
<path d="M0 287H287V0H0V287Z" fill="white"/>
</mask>
<g mask="url(#mask0_446_2772)">
<path d="M236.41 105.863C253.903 99.0531 273.564 107.471 280.772 124.686L281.106 125.512C287.916 143 279.502 162.669 262.288 169.875L261.461 170.208C247.056 175.815 231.173 171.1 221.989 159.638L221.557 159.087C220.508 157.721 219.636 156.422 218.574 155.002C217.684 153.813 216.694 152.587 215.681 151.846L215.478 151.705C214.358 150.96 212.871 150.582 211.411 150.382C210.101 150.203 208.678 150.15 207.302 150.169L206.715 150.182C201.347 150.337 195.617 150.265 190.146 150.165C185.574 150.08 181.17 149.977 177.346 149.97C180.615 140.808 182.8 134.667 183.18 133.605L183.179 133.604L184.02 131.332C191.147 132.264 199.532 132.08 209.362 130.05L209.361 130.049C210.283 129.859 211.346 129.584 212.34 129.205C213.245 128.859 214.213 128.383 214.951 127.718L215.096 127.583L215.098 127.581C216.383 126.319 216.825 125.298 217.459 123.881L217.458 123.88C221.042 115.905 227.625 109.283 236.409 105.862L236.41 105.863ZM268.278 129.925C263.968 119.634 252.329 114.519 241.836 118.298L241.329 118.489H241.328C230.703 122.63 225.36 134.475 229.2 145.14L229.39 145.647L229.391 145.649C233.598 156.438 245.751 161.786 256.547 157.579L256.546 157.578C267.168 153.441 272.511 141.6 268.671 130.935L268.481 130.428V130.427L268.278 129.925Z" fill="white" stroke="#443028" stroke-width="3"/>
<path d="M118.016 127.859C116.172 137.372 113.378 151.816 110.308 167.781C77.4836 177.719 40.5277 188.835 28.9053 192.04L26.9131 192.577C18.8613 194.67 13.4164 195.505 9.78125 195.219C7.98849 195.078 6.7387 194.671 5.85352 194.093C5.09886 193.601 4.53002 192.934 4.11035 192.031L3.93945 191.629L3.93848 191.627L3.79297 191.216C3.49113 190.267 3.4596 189.39 3.68262 188.517C3.94421 187.493 4.58864 186.348 5.81445 185.032C8.14509 182.529 12.3149 179.677 18.8838 176.112L20.2295 175.389C29.7268 170.344 82.1847 145.067 118.016 127.859Z" fill="white" stroke="#443028" stroke-width="3"/>
<path d="M102.363 26.9277C107.312 8.82429 125.787 -1.95598 143.909 2.50684L144.771 2.73047C162.872 7.68336 173.652 26.1587 169.186 44.2773L168.962 45.1396L168.961 45.1406C166.553 53.9521 160.94 61.0236 153.719 65.4463L153.016 65.8662H153.015C151.674 66.6448 150.705 67.189 149.586 68.6055C148.931 69.4309 148.525 70.5178 148.259 71.5156C148.054 72.2862 147.911 73.0889 147.812 73.8359L147.729 74.5615C145.496 96.9705 151.67 111.225 158.545 119.897C161.968 124.216 165.539 127.118 168.266 128.944C169.629 129.858 170.784 130.504 171.606 130.925C171.619 130.931 171.631 130.937 171.644 130.943C171.632 130.975 171.622 131.007 171.61 131.039C171.29 131.939 170.819 133.26 170.218 134.947C169.015 138.322 167.289 143.162 165.199 149.017C161.019 160.727 155.381 176.501 149.548 192.758C138.602 223.262 126.991 255.407 123.022 265.644L122.333 267.392C119.214 275.106 116.64 279.977 114.244 282.727C113.062 284.083 111.99 284.843 110.998 285.211C110.032 285.569 109.027 285.597 107.878 285.283H107.879C106.73 284.968 105.88 284.433 105.23 283.634C104.564 282.813 104.028 281.613 103.701 279.845C103.08 276.483 103.272 271.435 104.322 264.036L104.544 262.525C105.782 254.326 112.587 218.38 119.094 184.429C122.345 167.465 125.518 151.016 127.878 138.809C129.058 132.705 130.035 127.661 130.717 124.144C131.058 122.385 131.325 121.008 131.507 120.07C131.598 119.602 131.668 119.243 131.715 119.001C131.738 118.88 131.756 118.788 131.768 118.727C131.774 118.696 131.778 118.673 131.781 118.657C131.783 118.65 131.784 118.644 131.785 118.641C131.786 118.639 131.786 118.637 131.786 118.636C131.786 118.635 131.757 118.629 130.313 118.349L131.786 118.635L131.806 118.534L131.812 118.432C132.014 114.785 131.31 108.576 130.45 101.611C129.635 95.0075 128.663 87.608 128.087 80.6729L127.978 79.292C127.861 77.7408 127.651 76.1109 127.292 74.6436C126.963 73.3004 126.477 71.9505 125.714 70.9326L125.558 70.7334L125.555 70.7305L125.393 70.5439C124.549 69.6149 123.227 68.7584 121.951 67.9971C120.433 67.0912 119.044 66.354 117.579 65.4551H117.578C105.035 57.753 98.4286 42.5599 102.177 27.6387L102.363 26.9287V26.9277ZM150.767 128.443C146.339 127.234 141.765 129.839 140.554 134.271C139.381 138.561 141.79 142.987 145.971 144.364L146.381 144.488H146.382C150.814 145.699 155.384 143.087 156.595 138.657C157.81 134.224 155.197 129.654 150.766 128.443H150.767ZM141.197 15.8057C130.198 12.7993 118.848 19.1273 115.583 29.9834L115.434 30.5039C112.38 41.6728 118.958 53.2114 130.132 56.2627V56.2637C141.127 59.2747 152.481 52.9455 155.746 42.0889L155.896 41.5684C158.902 30.5697 152.574 19.2196 141.718 15.9541L141.197 15.8057Z" fill="white" stroke="#443028" stroke-width="3"/>
</g>
</g>
<defs>
<clipPath id="clip0_446_2772">
<rect width="287" height="287" fill="white"/>
</clipPath>
</defs>
</svg>
